<?xml version="1.0" encoding="iso-8859-1"?>
<!-- Generator: Adobe Illustrator 19.0.0, SVG Export Plug-In . SVG Version: 6.00 Build 0)  -->
<svg version="1.1" id="Layer_1" xmlns="http://www.w3.org/2000/svg" xmlns:xlink="http://www.w3.org/1999/xlink" x="0px" y="0px"
	 viewBox="0 0 512 512" style="enable-background:new 0 0 512 512;" xml:space="preserve">
<g>
	<g>
		<path d="M503.467,426.667h-76.8v-179.2c0-4.71-3.814-8.533-8.533-8.533H384c-4.719,0-8.533,3.823-8.533,8.533v102.4h-17.672
			C353.169,179.857,320.256,0,238.933,0H68.267c-4.719,0-8.533,3.823-8.533,8.533v34.133c0,4.719,3.814,8.533,8.533,8.533h9.054
			L51.174,218.069c-5.035-2.927-10.803-4.736-17.041-4.736C15.309,213.333,0,228.642,0,247.467c0,11.648,5.879,21.922,14.805,28.092
			C5.803,283.511,0,295.014,0,307.951v33.382v51.2v50.603c0,19.149,15.582,34.731,34.731,34.731h8.798
			C47.497,497.323,64.734,512,85.333,512c20.599,0,37.837-14.677,41.805-34.133h104.124C235.23,497.323,252.467,512,273.067,512
			c20.599,0,37.837-14.677,41.805-34.133h8.798c19.149,0,34.731-15.582,34.731-34.731V435.2h17.067v34.133
			c0,4.719,3.814,8.533,8.533,8.533h119.467c4.719,0,8.533-3.814,8.533-8.533V435.2C512,430.49,508.186,426.667,503.467,426.667z
			 M76.8,34.133V17.067h162.133c59.511,0,101.308,150.443,102.374,366.933H324.25c-0.017-4.531-0.06-8.892-0.094-13.312
			c-0.017-1.877-0.017-3.823-0.043-5.666c-1.135-110.874-9.378-184.73-26.965-243.516c-16.367-54.716-38.127-87.373-58.214-87.373
			H121.685H87.296H76.8z M267.861,197.222c-9.66-9.66-26.539-9.677-36.215,0l-30.165,30.165c-4.83,4.83-7.501,11.264-7.501,18.099
			c0,6.844,2.671,13.278,7.492,18.099c4.838,4.83,11.273,7.501,18.108,7.501c3.883,0,7.586-0.947,10.982-2.569l40.875,64.282H204.8
			v-19.183c0-17.647-14.37-32.017-32.017-32.017h-6.596c-6.946,0-12.587-5.641-12.587-12.578v-32.205
			c0-17.647-14.37-32.017-32.017-32.017h-10.974l18.637-153.6h109.688c6.067,0,25.037,18.935,41.865,75.204
			c12.8,42.76,20.514,94.029,24.064,162.79l-35.763-57.301c3.977-4.634,6.255-10.411,6.255-16.572
			C275.354,208.478,272.683,202.044,267.861,197.222z M65.425,261.035c0.051-0.119,0.128-0.239,0.179-0.367
			c0.768-1.826,1.323-3.729,1.766-5.666c0.102-0.469,0.188-0.93,0.273-1.399c0.367-2.014,0.623-4.053,0.623-6.135
			c0-2.15-0.222-4.301-0.648-6.417c-0.41-2.125-1.033-4.156-1.809-6.127L94.601,51.2h17.451L93.414,204.809
			c-0.597,0.034-1.118,0.273-1.681,0.427c-0.444,0.111-0.913,0.145-1.323,0.333c-0.58,0.256-1.05,0.666-1.553,1.041
			c-0.367,0.273-0.777,0.461-1.092,0.785c-0.469,0.486-0.785,1.092-1.126,1.681c-0.205,0.341-0.495,0.623-0.648,0.99
			c-0.418,1.007-0.657,2.108-0.657,3.268v51.2H63.684C64.341,263.407,64.905,262.229,65.425,261.035z M17.067,307.951
			c0-14.532,11.819-26.351,26.351-26.351H51.2h34.133v51.2H17.067V307.951z M341.333,443.136c0,9.745-7.927,17.664-17.664,17.664
			h-8.798v-0.017c-0.034-0.162-0.102-0.299-0.137-0.452c-0.529-2.458-1.28-4.821-2.21-7.1c-0.333-0.828-0.785-1.57-1.169-2.364
			c-0.76-1.553-1.536-3.089-2.466-4.531c-0.546-0.845-1.169-1.63-1.766-2.432c-0.956-1.271-1.937-2.5-3.021-3.661
			c-0.717-0.759-1.459-1.468-2.227-2.176c-1.143-1.058-2.338-2.039-3.601-2.97c-0.836-0.623-1.672-1.22-2.56-1.775
			c-1.357-0.862-2.773-1.596-4.224-2.295c-0.905-0.444-1.784-0.905-2.722-1.271c-1.638-0.657-3.345-1.135-5.077-1.587
			c-0.845-0.213-1.655-0.512-2.517-0.683c-2.628-0.503-5.325-0.819-8.107-0.819c-2.782,0-5.478,0.316-8.107,0.819
			c-0.862,0.171-1.673,0.469-2.517,0.683c-1.732,0.452-3.439,0.93-5.077,1.587c-0.939,0.367-1.818,0.828-2.722,1.271
			c-1.451,0.7-2.867,1.434-4.224,2.295c-0.887,0.555-1.724,1.152-2.56,1.775c-1.263,0.93-2.458,1.911-3.601,2.97
			c-0.768,0.708-1.51,1.417-2.227,2.176c-1.084,1.161-2.065,2.389-3.021,3.661c-0.597,0.802-1.22,1.587-1.766,2.432
			c-0.93,1.442-1.707,2.978-2.466,4.531c-0.384,0.794-0.836,1.536-1.169,2.364c-0.93,2.278-1.681,4.642-2.21,7.1
			c-0.034,0.154-0.102,0.29-0.137,0.452v0.017H127.138v-0.017c-0.034-0.162-0.102-0.299-0.137-0.452
			c-0.529-2.458-1.28-4.821-2.21-7.1c-0.333-0.828-0.785-1.57-1.169-2.364c-0.76-1.553-1.536-3.089-2.466-4.531
			c-0.546-0.845-1.169-1.63-1.766-2.432c-0.956-1.271-1.937-2.5-3.021-3.661c-0.717-0.759-1.459-1.468-2.227-2.176
			c-1.143-1.058-2.338-2.039-3.601-2.97c-0.836-0.623-1.673-1.22-2.56-1.775c-1.357-0.862-2.773-1.596-4.224-2.295
			c-0.905-0.444-1.784-0.905-2.722-1.271c-1.638-0.657-3.345-1.135-5.077-1.587c-0.845-0.213-1.655-0.512-2.517-0.683
			c-2.628-0.503-5.325-0.819-8.107-0.819c-2.782,0-5.478,0.316-8.107,0.819c-0.862,0.171-1.673,0.469-2.517,0.683
			c-1.732,0.452-3.439,0.93-5.077,1.587c-0.939,0.367-1.818,0.828-2.722,1.271c-1.451,0.7-2.867,1.434-4.224,2.295
			c-0.887,0.555-1.724,1.152-2.56,1.775c-1.263,0.93-2.458,1.911-3.601,2.97c-0.768,0.708-1.51,1.417-2.227,2.176
			c-1.084,1.161-2.065,2.389-3.021,3.661c-0.597,0.802-1.22,1.587-1.766,2.432c-0.93,1.442-1.707,2.978-2.466,4.531
			c-0.384,0.794-0.836,1.536-1.169,2.364c-0.93,2.278-1.681,4.642-2.21,7.1c-0.034,0.154-0.102,0.29-0.137,0.452v0.017h-8.798
			c-9.737,0-17.664-7.919-17.664-17.664v-42.069h298.667h25.6V443.136z"/>
	</g>
</g>
<g>
</g>
<g>
</g>
<g>
</g>
<g>
</g>
<g>
</g>
<g>
</g>
<g>
</g>
<g>
</g>
<g>
</g>
<g>
</g>
<g>
</g>
<g>
</g>
<g>
</g>
<g>
</g>
<g>
</g>
</svg>
